M48
; DRILL file {KiCad 8.0.3} date 2024-07-09T10:02:02+0200
; FORMAT={-:-/ absolute / metric / decimal}
; #@! TF.CreationDate,2024-07-09T10:02:02+02:00
; #@! TF.GenerationSoftware,Kicad,Pcbnew,8.0.3
; #@! TF.FileFunction,Plated,1,2,PTH
FMAT,2
METRIC
; #@! TA.AperFunction,Plated,PTH,ComponentDrill
T1C0.850
; #@! TA.AperFunction,Plated,PTH,ComponentDrill
T2C1.000
; #@! TA.AperFunction,Plated,PTH,ComponentDrill
T3C1.100
%
G90
G05
T1
X64.0Y-73.79
X68.2Y-73.79
T2
X63.52Y-33.04
X63.545Y-48.79
X63.545Y-52.54
X63.545Y-56.29
X63.545Y-60.04
X63.545Y-63.79
X64.81Y-38.54
X66.06Y-33.04
X66.085Y-48.79
X66.085Y-52.54
X66.085Y-56.29
X66.085Y-60.04
X66.085Y-63.79
X67.35Y-38.54
X68.6Y-33.04
X68.625Y-48.79
X68.625Y-52.54
X68.625Y-56.29
X68.625Y-60.04
X68.625Y-63.79
X72.49Y-34.25
X72.49Y-36.79
X72.49Y-39.33
X72.49Y-41.87
X72.49Y-44.41
X72.49Y-46.95
X72.49Y-49.49
X72.49Y-52.03
X72.49Y-54.57
X72.49Y-57.11
X72.49Y-59.65
X72.49Y-62.19
X72.49Y-64.73
X72.49Y-67.27
X72.49Y-69.81
X87.73Y-34.25
X87.73Y-36.79
X87.73Y-39.33
X87.73Y-41.87
X87.73Y-44.41
X87.73Y-46.95
X87.73Y-49.49
X87.73Y-52.03
X87.73Y-54.57
X87.73Y-57.11
X87.73Y-59.65
X87.73Y-62.19
X87.73Y-64.73
X87.73Y-67.27
X87.73Y-69.81
X91.6Y-50.915
X91.6Y-58.415
X91.6Y-62.165
X91.625Y-54.665
X92.835Y-33.04
X92.835Y-36.79
X94.14Y-50.915
X94.14Y-58.415
X94.14Y-62.165
X94.165Y-54.665
X95.375Y-33.04
X95.375Y-36.79
X96.68Y-50.915
X96.68Y-58.415
X96.68Y-62.165
X96.705Y-54.665
T3
X80.1Y-34.04
X80.1Y-44.2
M30
