%TF.GenerationSoftware,KiCad,Pcbnew,8.0.3*%
%TF.CreationDate,2024-07-09T10:02:45+02:00*%
%TF.ProjectId,Krabbler,4b726162-626c-4657-922e-6b696361645f,24.1*%
%TF.SameCoordinates,Original*%
%TF.FileFunction,Copper,L1,Top*%
%TF.FilePolarity,Positive*%
%FSLAX46Y46*%
G04 Gerber Fmt 4.6, Leading zero omitted, Abs format (unit mm)*
G04 Created by KiCad (PCBNEW 8.0.3) date 2024-07-09 10:02:45*
%MOMM*%
%LPD*%
G01*
G04 APERTURE LIST*
G04 Aperture macros list*
%AMRoundRect*
0 Rectangle with rounded corners*
0 $1 Rounding radius*
0 $2 $3 $4 $5 $6 $7 $8 $9 X,Y pos of 4 corners*
0 Add a 4 corners polygon primitive as box body*
4,1,4,$2,$3,$4,$5,$6,$7,$8,$9,$2,$3,0*
0 Add four circle primitives for the rounded corners*
1,1,$1+$1,$2,$3*
1,1,$1+$1,$4,$5*
1,1,$1+$1,$6,$7*
1,1,$1+$1,$8,$9*
0 Add four rect primitives between the rounded corners*
20,1,$1+$1,$2,$3,$4,$5,0*
20,1,$1+$1,$4,$5,$6,$7,0*
20,1,$1+$1,$6,$7,$8,$9,0*
20,1,$1+$1,$8,$9,$2,$3,0*%
G04 Aperture macros list end*
%TA.AperFunction,ComponentPad*%
%ADD10R,1.700000X1.700000*%
%TD*%
%TA.AperFunction,ComponentPad*%
%ADD11O,1.700000X1.700000*%
%TD*%
%TA.AperFunction,ComponentPad*%
%ADD12R,2.200000X2.200000*%
%TD*%
%TA.AperFunction,ComponentPad*%
%ADD13O,2.200000X2.200000*%
%TD*%
%TA.AperFunction,ComponentPad*%
%ADD14RoundRect,0.250000X0.675000X0.675000X-0.675000X0.675000X-0.675000X-0.675000X0.675000X-0.675000X0*%
%TD*%
%TA.AperFunction,ComponentPad*%
%ADD15C,1.850000*%
%TD*%
%TA.AperFunction,ComponentPad*%
%ADD16R,1.600000X1.600000*%
%TD*%
%TA.AperFunction,ComponentPad*%
%ADD17O,1.600000X1.600000*%
%TD*%
%TA.AperFunction,Conductor*%
%ADD18C,0.200000*%
%TD*%
G04 APERTURE END LIST*
D10*
%TO.P,M5,1,PWM*%
%TO.N,Net-(M5-PWM)*%
X68625000Y-63790000D03*
D11*
%TO.P,M5,2,+*%
%TO.N,Net-(A1-+)*%
X66085000Y-63790000D03*
%TO.P,M5,3,-*%
%TO.N,Net-(A1--)*%
X63545000Y-63790000D03*
%TD*%
D10*
%TO.P,P3,1,Pin_1*%
%TO.N,+6V*%
X67350000Y-38540000D03*
D11*
%TO.P,P3,2,Pin_2*%
%TO.N,Net-(A1--)*%
X64810000Y-38540000D03*
%TD*%
D12*
%TO.P,D1,1,K*%
%TO.N,Net-(D1-K)*%
X80100000Y-34040000D03*
D13*
%TO.P,D1,2,A*%
%TO.N,Net-(A1-+)*%
X80100000Y-44200000D03*
%TD*%
D10*
%TO.P,A1,1,-*%
%TO.N,Net-(A1--)*%
X91600000Y-62165000D03*
D11*
%TO.P,A1,2,+*%
%TO.N,Net-(A1-+)*%
X94140000Y-62165000D03*
%TO.P,A1,3,data*%
%TO.N,Net-(A1-data)*%
X96680000Y-62165000D03*
%TD*%
D14*
%TO.P,P2,1,Pin_1*%
%TO.N,Net-(A1-+)*%
X68200000Y-73790000D03*
D15*
%TO.P,P2,2,Pin_2*%
%TO.N,Net-(P1-+)*%
X64000000Y-73790000D03*
%TD*%
D16*
%TO.P,MC1,1,D1/TX*%
%TO.N,unconnected-(MC1-D1{slash}TX-Pad1)*%
X72490000Y-34250000D03*
D17*
%TO.P,MC1,2,D0/RX*%
%TO.N,unconnected-(MC1-D0{slash}RX-Pad2)*%
X72490000Y-36790000D03*
%TO.P,MC1,3,~{RESET}*%
%TO.N,unconnected-(MC1-~{RESET}-Pad3)*%
X72490000Y-39330000D03*
%TO.P,MC1,4,GND*%
%TO.N,unconnected-(MC1-GND-Pad4)*%
X72490000Y-41870000D03*
%TO.P,MC1,5,D2*%
%TO.N,unconnected-(MC1-D2-Pad5)*%
X72490000Y-44410000D03*
%TO.P,MC1,6,D3*%
%TO.N,Net-(M1-PWM)*%
X72490000Y-46950000D03*
%TO.P,MC1,7,D4*%
%TO.N,unconnected-(MC1-D4-Pad7)*%
X72490000Y-49490000D03*
%TO.P,MC1,8,D5*%
%TO.N,Net-(M2-PWM)*%
X72490000Y-52030000D03*
%TO.P,MC1,9,D6*%
%TO.N,Net-(M3-PWM)*%
X72490000Y-54570000D03*
%TO.P,MC1,10,D7*%
%TO.N,unconnected-(MC1-D7-Pad10)*%
X72490000Y-57110000D03*
%TO.P,MC1,11,D8*%
%TO.N,unconnected-(MC1-D8-Pad11)*%
X72490000Y-59650000D03*
%TO.P,MC1,12,D9*%
%TO.N,Net-(M4-PWM)*%
X72490000Y-62190000D03*
%TO.P,MC1,13,D10*%
%TO.N,Net-(M5-PWM)*%
X72490000Y-64730000D03*
%TO.P,MC1,14,D11*%
%TO.N,unconnected-(MC1-D11-Pad14)*%
X72490000Y-67270000D03*
%TO.P,MC1,15,D12*%
%TO.N,unconnected-(MC1-D12-Pad15)*%
X72490000Y-69810000D03*
%TO.P,MC1,16,D13*%
%TO.N,unconnected-(MC1-D13-Pad16)*%
X87730000Y-69810000D03*
%TO.P,MC1,17,3V3*%
%TO.N,unconnected-(MC1-3V3-Pad17)*%
X87730000Y-67270000D03*
%TO.P,MC1,18,AREF*%
%TO.N,unconnected-(MC1-AREF-Pad18)*%
X87730000Y-64730000D03*
%TO.P,MC1,19,A0*%
%TO.N,Net-(A1-data)*%
X87730000Y-62190000D03*
%TO.P,MC1,20,A1*%
%TO.N,Net-(A2-data)*%
X87730000Y-59650000D03*
%TO.P,MC1,21,A2*%
%TO.N,Net-(A3-data)*%
X87730000Y-57110000D03*
%TO.P,MC1,22,A3*%
%TO.N,Net-(A4-data)*%
X87730000Y-54570000D03*
%TO.P,MC1,23,A4*%
%TO.N,Net-(I2C_1-SDA)*%
X87730000Y-52030000D03*
%TO.P,MC1,24,A5*%
%TO.N,Net-(I2C_1-SCL)*%
X87730000Y-49490000D03*
%TO.P,MC1,25,A6*%
%TO.N,unconnected-(MC1-A6-Pad25)*%
X87730000Y-46950000D03*
%TO.P,MC1,26,A7*%
%TO.N,unconnected-(MC1-A7-Pad26)*%
X87730000Y-44410000D03*
%TO.P,MC1,27,+5V*%
%TO.N,Net-(MC1-+5V)*%
X87730000Y-41870000D03*
%TO.P,MC1,28,~{RESET}*%
%TO.N,unconnected-(MC1-~{RESET}-Pad28)*%
X87730000Y-39330000D03*
%TO.P,MC1,29,GND*%
%TO.N,Net-(A1--)*%
X87730000Y-36790000D03*
%TO.P,MC1,30,VIN*%
%TO.N,Net-(D1-K)*%
X87730000Y-34250000D03*
%TD*%
D10*
%TO.P,M4,1,PWM*%
%TO.N,Net-(M4-PWM)*%
X68625000Y-60040000D03*
D11*
%TO.P,M4,2,+*%
%TO.N,Net-(A1-+)*%
X66085000Y-60040000D03*
%TO.P,M4,3,-*%
%TO.N,Net-(A1--)*%
X63545000Y-60040000D03*
%TD*%
D10*
%TO.P,M1,1,PWM*%
%TO.N,Net-(M1-PWM)*%
X68625000Y-48790000D03*
D11*
%TO.P,M1,2,+*%
%TO.N,Net-(A1-+)*%
X66085000Y-48790000D03*
%TO.P,M1,3,-*%
%TO.N,Net-(A1--)*%
X63545000Y-48790000D03*
%TD*%
D10*
%TO.P,M2,1,PWM*%
%TO.N,Net-(M2-PWM)*%
X68625000Y-52540000D03*
D11*
%TO.P,M2,2,+*%
%TO.N,Net-(A1-+)*%
X66085000Y-52540000D03*
%TO.P,M2,3,-*%
%TO.N,Net-(A1--)*%
X63545000Y-52540000D03*
%TD*%
D10*
%TO.P,A2,1,-*%
%TO.N,Net-(A1--)*%
X91600000Y-58415000D03*
D11*
%TO.P,A2,2,+*%
%TO.N,Net-(A1-+)*%
X94140000Y-58415000D03*
%TO.P,A2,3,data*%
%TO.N,Net-(A2-data)*%
X96680000Y-58415000D03*
%TD*%
D10*
%TO.P,I2C_2,1,SDA*%
%TO.N,Net-(I2C_1-SDA)*%
X95375000Y-36790000D03*
D11*
%TO.P,I2C_2,2,SCL*%
%TO.N,Net-(I2C_1-SCL)*%
X92835000Y-36790000D03*
%TD*%
D10*
%TO.P,I2C_1,1,SDA*%
%TO.N,Net-(I2C_1-SDA)*%
X95375000Y-33040000D03*
D11*
%TO.P,I2C_1,2,SCL*%
%TO.N,Net-(I2C_1-SCL)*%
X92835000Y-33040000D03*
%TD*%
D10*
%TO.P,P1,1,-*%
%TO.N,+6V*%
X68600000Y-33040000D03*
D11*
%TO.P,P1,2,+*%
%TO.N,Net-(P1-+)*%
X66060000Y-33040000D03*
%TO.P,P1,3,data*%
%TO.N,Net-(MC1-+5V)*%
X63520000Y-33040000D03*
%TD*%
D10*
%TO.P,M3,1,PWM*%
%TO.N,Net-(M3-PWM)*%
X68625000Y-56290000D03*
D11*
%TO.P,M3,2,+*%
%TO.N,Net-(A1-+)*%
X66085000Y-56290000D03*
%TO.P,M3,3,-*%
%TO.N,Net-(A1--)*%
X63545000Y-56290000D03*
%TD*%
D10*
%TO.P,A3,1,-*%
%TO.N,Net-(A1--)*%
X91625000Y-54665000D03*
D11*
%TO.P,A3,2,+*%
%TO.N,Net-(A1-+)*%
X94165000Y-54665000D03*
%TO.P,A3,3,data*%
%TO.N,Net-(A3-data)*%
X96705000Y-54665000D03*
%TD*%
D10*
%TO.P,A4,1,-*%
%TO.N,Net-(A1--)*%
X91600000Y-50915000D03*
D11*
%TO.P,A4,2,+*%
%TO.N,Net-(A1-+)*%
X94140000Y-50915000D03*
%TO.P,A4,3,data*%
%TO.N,Net-(A4-data)*%
X96680000Y-50915000D03*
%TD*%
D18*
%TO.N,Net-(A1-data)*%
X96680000Y-62165000D02*
X95530000Y-61015000D01*
X88905000Y-61015000D02*
X87730000Y-62190000D01*
X95530000Y-61015000D02*
X88905000Y-61015000D01*
%TO.N,Net-(A2-data)*%
X95445000Y-59650000D02*
X87730000Y-59650000D01*
X96680000Y-58415000D02*
X95445000Y-59650000D01*
%TO.N,Net-(A3-data)*%
X96705000Y-54665000D02*
X94260000Y-57110000D01*
X94260000Y-57110000D02*
X87730000Y-57110000D01*
%TO.N,Net-(A4-data)*%
X96680000Y-50915000D02*
X94080000Y-53515000D01*
X88785000Y-53515000D02*
X87730000Y-54570000D01*
X94080000Y-53515000D02*
X88785000Y-53515000D01*
%TO.N,Net-(M1-PWM)*%
X70650000Y-48790000D02*
X72490000Y-46950000D01*
X68625000Y-48790000D02*
X70650000Y-48790000D01*
%TO.N,Net-(M2-PWM)*%
X68625000Y-52540000D02*
X71980000Y-52540000D01*
X71980000Y-52540000D02*
X72490000Y-52030000D01*
%TO.N,Net-(M3-PWM)*%
X68625000Y-56290000D02*
X70770000Y-56290000D01*
X70770000Y-56290000D02*
X72490000Y-54570000D01*
%TO.N,Net-(M4-PWM)*%
X70340000Y-60040000D02*
X72490000Y-62190000D01*
X68625000Y-60040000D02*
X70340000Y-60040000D01*
%TO.N,Net-(M5-PWM)*%
X68625000Y-63790000D02*
X71550000Y-63790000D01*
X71550000Y-63790000D02*
X72490000Y-64730000D01*
%TO.N,Net-(A1-+)*%
X68200000Y-73790000D02*
X68200000Y-65905000D01*
X66085000Y-48790000D02*
X66085000Y-63790000D01*
X68200000Y-65905000D02*
X66085000Y-63790000D01*
%TO.N,Net-(A1--)*%
X63545000Y-48790000D02*
X63545000Y-63790000D01*
X87730000Y-36790000D02*
X90850000Y-39910000D01*
X64810000Y-38540000D02*
X67660000Y-35690000D01*
X90850000Y-39910000D02*
X90850000Y-50165000D01*
X67660000Y-35690000D02*
X86630000Y-35690000D01*
X63545000Y-39805000D02*
X63545000Y-48790000D01*
X86630000Y-35690000D02*
X87730000Y-36790000D01*
X64810000Y-38540000D02*
X63545000Y-39805000D01*
X90850000Y-50165000D02*
X91600000Y-50915000D01*
%TO.N,Net-(D1-K)*%
X80150000Y-33990000D02*
X80100000Y-34040000D01*
X87730000Y-34250000D02*
X87470000Y-33990000D01*
X87470000Y-33990000D02*
X80150000Y-33990000D01*
%TD*%
M02*
