%TF.GenerationSoftware,KiCad,Pcbnew,8.0.3*%
%TF.CreationDate,2024-07-09T10:02:45+02:00*%
%TF.ProjectId,Krabbler,4b726162-626c-4657-922e-6b696361645f,24.1*%
%TF.SameCoordinates,Original*%
%TF.FileFunction,Soldermask,Bot*%
%TF.FilePolarity,Negative*%
%FSLAX46Y46*%
G04 Gerber Fmt 4.6, Leading zero omitted, Abs format (unit mm)*
G04 Created by KiCad (PCBNEW 8.0.3) date 2024-07-09 10:02:45*
%MOMM*%
%LPD*%
G01*
G04 APERTURE LIST*
G04 Aperture macros list*
%AMRoundRect*
0 Rectangle with rounded corners*
0 $1 Rounding radius*
0 $2 $3 $4 $5 $6 $7 $8 $9 X,Y pos of 4 corners*
0 Add a 4 corners polygon primitive as box body*
4,1,4,$2,$3,$4,$5,$6,$7,$8,$9,$2,$3,0*
0 Add four circle primitives for the rounded corners*
1,1,$1+$1,$2,$3*
1,1,$1+$1,$4,$5*
1,1,$1+$1,$6,$7*
1,1,$1+$1,$8,$9*
0 Add four rect primitives between the rounded corners*
20,1,$1+$1,$2,$3,$4,$5,0*
20,1,$1+$1,$4,$5,$6,$7,0*
20,1,$1+$1,$6,$7,$8,$9,0*
20,1,$1+$1,$8,$9,$2,$3,0*%
G04 Aperture macros list end*
%ADD10R,1.700000X1.700000*%
%ADD11O,1.700000X1.700000*%
%ADD12R,2.200000X2.200000*%
%ADD13O,2.200000X2.200000*%
%ADD14RoundRect,0.250000X0.675000X0.675000X-0.675000X0.675000X-0.675000X-0.675000X0.675000X-0.675000X0*%
%ADD15C,1.850000*%
%ADD16R,1.600000X1.600000*%
%ADD17O,1.600000X1.600000*%
%ADD18C,2.200000*%
G04 APERTURE END LIST*
D10*
%TO.C,M5*%
X68625000Y-63790000D03*
D11*
X66085000Y-63790000D03*
X63545000Y-63790000D03*
%TD*%
D10*
%TO.C,P3*%
X67350000Y-38540000D03*
D11*
X64810000Y-38540000D03*
%TD*%
D12*
%TO.C,D1*%
X80100000Y-34040000D03*
D13*
X80100000Y-44200000D03*
%TD*%
D10*
%TO.C,A1*%
X91600000Y-62165000D03*
D11*
X94140000Y-62165000D03*
X96680000Y-62165000D03*
%TD*%
D14*
%TO.C,P2*%
X68200000Y-73790000D03*
D15*
X64000000Y-73790000D03*
%TD*%
D16*
%TO.C,MC1*%
X72490000Y-34250000D03*
D17*
X72490000Y-36790000D03*
X72490000Y-39330000D03*
X72490000Y-41870000D03*
X72490000Y-44410000D03*
X72490000Y-46950000D03*
X72490000Y-49490000D03*
X72490000Y-52030000D03*
X72490000Y-54570000D03*
X72490000Y-57110000D03*
X72490000Y-59650000D03*
X72490000Y-62190000D03*
X72490000Y-64730000D03*
X72490000Y-67270000D03*
X72490000Y-69810000D03*
X87730000Y-69810000D03*
X87730000Y-67270000D03*
X87730000Y-64730000D03*
X87730000Y-62190000D03*
X87730000Y-59650000D03*
X87730000Y-57110000D03*
X87730000Y-54570000D03*
X87730000Y-52030000D03*
X87730000Y-49490000D03*
X87730000Y-46950000D03*
X87730000Y-44410000D03*
X87730000Y-41870000D03*
X87730000Y-39330000D03*
X87730000Y-36790000D03*
X87730000Y-34250000D03*
%TD*%
D10*
%TO.C,M4*%
X68625000Y-60040000D03*
D11*
X66085000Y-60040000D03*
X63545000Y-60040000D03*
%TD*%
D10*
%TO.C,M1*%
X68625000Y-48790000D03*
D11*
X66085000Y-48790000D03*
X63545000Y-48790000D03*
%TD*%
D10*
%TO.C,M2*%
X68625000Y-52540000D03*
D11*
X66085000Y-52540000D03*
X63545000Y-52540000D03*
%TD*%
D18*
%TO.C,REF\u002A\u002A*%
X66850000Y-43490000D03*
%TD*%
%TO.C,REF\u002A\u002A*%
X94100000Y-45290000D03*
%TD*%
D10*
%TO.C,A2*%
X91600000Y-58415000D03*
D11*
X94140000Y-58415000D03*
X96680000Y-58415000D03*
%TD*%
D10*
%TO.C,I2C_2*%
X95375000Y-36790000D03*
D11*
X92835000Y-36790000D03*
%TD*%
D10*
%TO.C,I2C_1*%
X95375000Y-33040000D03*
D11*
X92835000Y-33040000D03*
%TD*%
D10*
%TO.C,P1*%
X68600000Y-33040000D03*
D11*
X66060000Y-33040000D03*
X63520000Y-33040000D03*
%TD*%
D10*
%TO.C,M3*%
X68625000Y-56290000D03*
D11*
X66085000Y-56290000D03*
X63545000Y-56290000D03*
%TD*%
D18*
%TO.C,REF\u002A\u002A*%
X80100000Y-57290000D03*
%TD*%
D10*
%TO.C,A3*%
X91625000Y-54665000D03*
D11*
X94165000Y-54665000D03*
X96705000Y-54665000D03*
%TD*%
D10*
%TO.C,A4*%
X91600000Y-50915000D03*
D11*
X94140000Y-50915000D03*
X96680000Y-50915000D03*
%TD*%
M02*
